<svg width="988" height="629" viewBox="0 0 988 629" fill="none" xmlns="http://www.w3.org/2000/svg">
<g style="mix-blend-mode:screen" filter="url(#filter0_f_12_29)">
<path d="M508.991 253.548C540.909 308.832 521.967 379.524 466.683 411.442C411.399 443.361 191.291 444.932 159.373 389.648C127.454 334.364 295.812 243.159 351.096 211.24C406.381 179.322 477.072 198.264 508.991 253.548Z" fill="#00E5FF"/>
</g>
<g style="mix-blend-mode:screen" filter="url(#filter1_f_12_29)">
<path d="M236.604 418.865C254.392 382.781 323.157 341.391 302.35 235.341C281.544 129.292 846.506 243.335 790.725 339.993C735.406 435.852 218.816 454.948 236.604 418.865Z" fill="url(#paint0_linear_12_29)"/>
</g>
<defs>
<filter id="filter0_f_12_29" x="0.697067" y="41.0504" width="678.484" height="547.326" filterUnits="userSpaceOnUse" color-interpolation-filters="sRGB">
<feFlood flood-opacity="0" result="BackgroundImageFix"/>
<feBlend mode="normal" in="SourceGraphic" in2="BackgroundImageFix" result="shape"/>
<feGaussianBlur stdDeviation="77.3425" result="effect1_foregroundBlur_12_29"/>
</filter>
<filter id="filter1_f_12_29" x="43.4329" y="0.0802689" width="943.891" height="628.514" filterUnits="userSpaceOnUse" color-interpolation-filters="sRGB">
<feFlood flood-opacity="0" result="BackgroundImageFix"/>
<feBlend mode="normal" in="SourceGraphic" in2="BackgroundImageFix" result="shape"/>
<feGaussianBlur stdDeviation="96.3612" result="effect1_foregroundBlur_12_29"/>
</filter>
<linearGradient id="paint0_linear_12_29" x1="395.108" y1="161.779" x2="575.288" y2="473.86" gradientUnits="userSpaceOnUse">
<stop stop-color="#FF006B" stop-opacity="0.32"/>
<stop offset="1" stop-color="#FF6DC1"/>
</linearGradient>
</defs>
</svg>
